<?xml version="1.0" encoding="UTF-8"?>
<svg version="1.1" viewBox="0 0 1600 1600" width="400" height="400" xmlns="http://www.w3.org/2000/svg">
<path transform="translate(1031,219)" d="m0 0h9l25 4 25 7 26 10 25 12 16 9 16 11 12 11 8 8 9 14 4 11 3 22 17 63 29 106 35 128 18 66 14 51 12 44 8 28 9 25 3 14 1 16 1 4 5 2 14 12 10 9 10 10 9 11 11 15 12 20 11 23 8 22 7 27 4 22 4 35 1 19v51l-3 17-5 15-8 15-9 12-9 10-13 11-18 11-16 8-20 8-26 8-30 7-35 6-39 5-53 5-27 2-23 1h-20l-35-2-38-4-39-6-44-9-37-9-41-11-56-16h-7l-15 3-33 4-27 2-21 1h-43l-21-2-38-7-42-10-49-14-38-13-23-10-23-12-14-10-14-12-22-22-9-11-12-15-18-27-12-21-12-25-10-30-5-21-6-12-13-18-8-10-7-8-11-9-13-9-30-15-10-8-10-10-9-14-5-11-5-16-3-18v-27l5-32 25-144 16-92 4-17 8-16 10-16 8-10 9-10 7-7 15-11 17-9 17-5 12-2h19l24 2h15l14-2 12-5 10-7 7-6 9-11 12-17 11-13 11-10 14-9 14-7 21-7 26-6 22-5 20-6 24-9 24-11 20-10 24-14 23-15 12-6 16-3 10-1h37l39 3 35 5 21 5 20 7 6-2 22-12 20-12 21-12 21-11 19-7 15-3z" fill="#050505"/>
<path transform="translate(1032,297)" d="m0 0h7l16 4 21 7 23 10 18 10 10 8 5 16 13 49 17 62 18 66 13 47 12 44 17 62 27 99-1 5-8 8-8 7-12 11-11 9-12 11-16 12-19 13-14 8-13 4-14 2-36 2 4 3 29 10h13l25-6 23-5 21-6h2l-2 4-14 8-25 11-22 7-23 5-18 3-18 1 3 3 29 12 23 7 15 3v4l-25 3-12 2-23 2-10 1-1-17-4-27-7-37-11-51-6-29-6-27-6-29-2-7-2-11-4-17-8-30-10-32-9-24-12-29-15-31-2-4 2-10 3-18 7-37 4-14-6 4-7 9-11 14-10 15-10 18-7 16-4 12-1 6-1 19v31l1 14-1 1h-9l-19 5-40 14-29 10-4 2h-3l-1-2-6 1-35 12-39 14-10 5h-3l-11-26-12-25-14-26-6-10-1-28-4-10-4-4-5-1-7 3-6 9-4 13-3 17-1 13v51l2 28 6 29 7 29 14 62 14 66 9 49 6 38 1 10v21l-9 8-16 9-19 13-17 12-22 12-19 9h-2l2 9 3 2 8-1 23-8 33-8 19-4 8-1-1 4-21 12-21 13-16 9-10 5 1 1 63 1v3l-14 4-8 1h-27l-12-2-21-5-8-5-7-8-9-16-10-23-10-27-13-38-13-43-14-50-15-57-18-73-7-26-10-23-11-20-12-20-8-11-19-11-27-16-5-4-3-1 8 16 10 21 13 22 4 5-1 16-3 55v16l2 31 3 20 11 44 13 47 10 35 9 31 2 7-1 5-23 12-14 5-11 1h-20l-3 5 1 6 7 3 24 1 16 3 2 1v2l-2 1h-44l-8-1 4 4 18 8 25 12 24 11 16 6 7 5v2l-7-1-13-3-36-12-15-6-16-8-6-8-8-16-7-17-9-35-9-21-8-14-11-16-11-13-8-14-6-16-7-26-11-44-5-15-6-14v-6l1-7-2-3-8-2h-6l-5 5-1 2v15l3 12 4 7v3l-5-2-8-5-6-1-3 2-1 9 13 9 6 8 12 23v15l-2 1-5-5-9-11-13-12-7-6-4-6 1-13 6-31 3-17 11-65 7-40 7-39 6-36 4-23 3-10 6-11 10-12 10-7 6-3h13l15 2 19 1 23-2 21-4 19-7 16-9 16-12 12-11 11-13 12-17 8-10 10-7 16-6 42-9 24-7 28-10 27-12 34-17 22-13 14-9 10-6 9-1 27 1 37 3 28 5 15 5 15 6 8 2h16l18-4 15-6 16-8 18-10 15-9 22-13 17-8z" fill="#EEE344"/>
<path transform="translate(1321,954)" d="m0 0 7 6 14 14 10 14 9 16 8 18 6 21 3 12 4 26v6l-2 3-4-1-5-17-8-16-9-16-10-15-9-12-14-17-7-10-5-4 10 24 7 18 9 28 5 20 3 19 1 10v27l-3 19-5 14-6 10-11 13-12 6-61 21-13 4-36 4-49 4h-61l-14-2-23-11-20-11-13-9-15-12-7-11-4-15-3-25v-29l2-25 3-13 2-11 4-10 9-6 10-4 12-3 22-2 42-3 26-3 23-3 23-4 26-5 32-8 36-11 20-8 16-8 12-7 10-8z" fill="#EEE344"/>
<path transform="translate(982,811)" d="m0 0 4 1 4 15 3 14 5 30v30l-4 8-10 11-11 9-13 9-25 15-27 15-31 16-21 12-6 5-2 3 1 6 7 4h11l18-3 17-5 24-7 5-1v5l-5 3-44 14-21 7-3 4 1 6 4 3 18 4 25 3 4 1v4l-3 1h-43l-14-3-4-5-11-19-15-33-13-32-9-24-18-54 1-4 29-10 33-12 12-7 10-10 13-5 8-3 4 1 3 6 2 2 5-1 30-10 43-15z" fill="#EEE344"/>
<path transform="translate(924,633)" d="m0 0h12l12 4 12 7 11 11 7 14 3 12v9l-4 15 1 5 10 8 8 9 6 12 3 9 1 12-3 12-6 12-8 10-7 6-14 6-56 19-10 4h-3l-18-52-17-50-15-43-7-19v-4l10-4 30-10 27-10z" fill="#EEE344"/>
<path transform="translate(815,666)" d="m0 0 1 2-8 16-10 19-10 3-8 3-21 8-9 8-3 8v9l4 9 5 5 6 3h15l22-8 10-3h16l14 5 12 8 8 9 7 14 2 9v19l-4 10-6 10-10 11-15 7-40 14-18 7h-3l1-6 14-28 8-4 25-9 10-5 5-5 4-5 1-11-3-10-4-4v-2l-5-2-6-2h-7l-15 4-17 6-5 1h-17l-9-2-12-7-12-12-7-14-3-11v-13l4-13 7-12 11-11 13-6 28-10 20-7z" fill="#EEE344"/>
<path transform="translate(926,661)" d="m0 0 7 1 10 4 7 8 4 10-1 7-5 8-8 7-17 7-7 1 1 4 25 12 4 2 13 1 11 6 4 5 4 10-1 9-6 9-10 7-40 14-5 1-9-25-10-30-11-31-7-20-3-9 10-4 38-13z" fill="#050505"/>
<path transform="translate(814,1125)" d="m0 0 5 1 15 4 19 2h27l18-2 5-1h8l1 18 5 28 4 14v3l-7-1-56-16-27-7-15-3h-13l-19 6-24 3-26 2-26 1h-37l-13-2-1-2 44-1 17-2 19-5 17-6 24-11 18-10 12-8z" fill="#EEE344"/>
<path transform="translate(1318,1057)" d="m0 0h8l4 4 2 11 2 18v32l-2 25-2 9-5 5-7-1-4-6-3-16v-57l2-14 4-9z" fill="#050505"/>
<path transform="translate(287,956)" d="m0 0 5 4 4 6v2h2l6 9 1 4-4-4-13-18z" fill="#F2EA79"/>
</svg>
